<svg width="30" height="30" viewBox="0 0 30 30" fill="none" xmlns="http://www.w3.org/2000/svg">
<path fill-rule="evenodd" clip-rule="evenodd" d="M21 15C21 18.3137 18.3137 21 15 21C11.6863 21 9 18.3137 9 15C9 11.6863 11.6863 9 15 9C16.4021 9 17.6918 9.4809 18.7133 10.2867L19.4246 9.57542C18.2187 8.59065 16.6783 8 15 8C11.134 8 8 11.134 8 15C8 18.866 11.134 22 15 22C18.866 22 22 18.866 22 15C22 14.29 21.8943 13.6048 21.6978 12.9591L20.876 13.7808C20.9573 14.1745 21 14.5823 21 15Z" fill="#2A3B53"/>
<path d="M12 13.5367L15.2314 16.7684L24.4998 7.5" stroke="#2A3B53"/>
</svg>
