<svg width="16" height="16" viewBox="0 0 16 16" fill="none" xmlns="http://www.w3.org/2000/svg">
<path d="M14.7762 11.3314L14.3176 11.7781C14.1733 11.9176 13.9813 11.9945 13.7761 11.9945C13.571 11.9945 13.3787 11.9176 13.2344 11.7781L8.00313 6.71692L2.76584 11.7837C2.62174 11.9232 2.42949 12 2.22438 12C2.01928 12 1.82692 11.9232 1.6827 11.7837L1.224 11.3397C0.925333 11.051 0.925333 10.5807 1.224 10.292L7.45963 4.23763C7.60373 4.09823 7.79575 4 8.00267 4H8.00506C8.21029 4 8.4023 4.09834 8.5464 4.23763L14.7762 10.2756C14.9206 10.415 14.9998 10.6064 15 10.8048C15 11.0033 14.9206 11.1921 14.7762 11.3314Z" fill="#2A3B53"/>
</svg>
