<svg width="16" height="16" viewBox="0 0 16 16" fill="none" xmlns="http://www.w3.org/2000/svg">
<path d="M14.7762 4.66863L14.3176 4.22189C14.1733 4.08237 13.9813 4.00551 13.7761 4.00551C13.571 4.00551 13.3787 4.08237 13.2344 4.22189L8.00313 9.28308L2.76584 4.21627C2.62174 4.07675 2.42949 4 2.22438 4C2.01928 4 1.82692 4.07675 1.6827 4.21627L1.224 4.66026C0.925333 4.94899 0.925333 5.4193 1.224 5.70802L7.45963 11.7624C7.60373 11.9018 7.79575 12 8.00267 12H8.00506C8.21029 12 8.4023 11.9017 8.5464 11.7624L14.7762 5.72443C14.9206 5.58502 14.9998 5.39364 15 5.19521C15 4.99667 14.9206 4.80793 14.7762 4.66863Z" fill="#2A3B53"/>
</svg>
