<svg width="24" height="24" viewBox="0 0 24 24" fill="none" xmlns="http://www.w3.org/2000/svg">
<path d="M10.8214 14.3813L14.8692 10.2854L14.9278 10.5375C15.7207 13.3523 13.1333 15.1204 11.1275 14.4886L10.8214 14.3813Z" fill="#2A3B53"/>
<path d="M12.0082 16.0731C14.6604 16.0731 16.5821 13.8944 16.5821 11.5281C16.5821 10.6145 16.2411 9.74351 16.0249 9.20826L18.8 6.57518C20.4163 7.70033 22.1861 9.64622 23 11.4509C21.077 15.2284 16.877 18.8225 11.6883 18.8225C10.343 18.8225 8.74602 18.388 7.4391 17.7903L9.69514 15.4893C10.415 15.8923 11.3884 16.0731 12.0082 16.0731ZM1.98183 18.7921L4.17274 16.6321L4.73227 16.0731C3.14674 14.851 1.8217 13.3994 1 11.5035C2.95828 7.42937 6.78647 4.31131 11.5912 3.96064C13.2328 3.96064 14.4313 4.14259 16.0249 4.78851L16.4333 4.4508L19.0143 2L20.2395 3.20314L3.20701 20L1.98183 18.7921ZM7.77053 13.1329L8.93487 11.9686C8.89162 11.7649 8.88721 11.5244 8.88721 11.3112C8.97453 9.72968 10.2384 8.37081 12.0817 8.37081C12.298 8.37081 12.5046 8.39923 12.7064 8.44186L13.9058 7.31413C13.2668 7.0015 12.4673 6.82981 11.5912 6.91728C9.12525 7.31413 7.62539 8.82095 7.41183 11.3906C7.41183 12.1641 7.5543 12.4852 7.77053 13.1329Z" fill="#2A3B53"/>
</svg>
