<svg width="24" height="24" viewBox="0 0 24 24" fill="none" xmlns="http://www.w3.org/2000/svg">
<path d="M22.9065 11.1175C20.6621 7.15003 16.4814 4 12 4C7.51859 4 3.33789 7.15003 1.09352 11.1175C0.968828 11.35 0.968828 11.635 1.09352 11.8675C3.33789 15.8425 7.51859 19 12 19C16.4814 19 20.6621 15.8425 22.9065 11.8675C23.0312 11.635 23.0312 11.35 22.9065 11.1175ZM12 16.1875C9.46958 16.1875 7.4159 14.0875 7.4159 11.5C7.4159 8.91253 9.46958 6.81253 12 6.81253C14.5304 6.81253 16.5841 8.91253 16.5841 11.5C16.5841 14.0875 14.5304 16.1875 12 16.1875Z" fill="#2A3B53"/>
<path d="M12 14.6869C13.7216 14.6869 15.1172 13.2598 15.1172 11.4994C15.1172 9.73898 13.7216 8.31189 12 8.31189C10.2784 8.31189 8.88281 9.73898 8.88281 11.4994C8.88281 13.2598 10.2784 14.6869 12 14.6869Z" fill="#2A3B53"/>
</svg>
